<svg xmlns="http://www.w3.org/2000/svg" xmlns:xlink="http://www.w3.org/1999/xlink" width="150" zoomAndPan="magnify" viewBox="0 0 112.5 33.749998" height="45" preserveAspectRatio="xMidYMid meet" version="1.0"><defs><g/><clipPath id="e29cad5486"><path d="M 48.027344 1.539062 L 63 1.539062 L 63 20.980469 L 48.027344 20.980469 Z M 48.027344 1.539062 " clip-rule="nonzero"/></clipPath><clipPath id="d53e583754"><path d="M 50 8 L 61 8 L 61 20.980469 L 50 20.980469 Z M 50 8 " clip-rule="nonzero"/></clipPath><clipPath id="ab65999d8e"><path d="M 53 15 L 58 15 L 58 20.980469 L 53 20.980469 Z M 53 15 " clip-rule="nonzero"/></clipPath></defs><g clip-path="url(#e29cad5486)"><path fill="#8c52ff" d="M 55.222656 20.710938 C 53.273438 20.710938 48.453125 20.402344 48.027344 14.777344 C 48.027344 14.777344 49.277344 17.019531 49.277344 16.757812 C 49.285156 15.902344 48.027344 12.769531 51.167969 10.640625 C 55.007812 8.03125 53.851562 4.832031 52.9375 4.773438 C 52.9375 4.773438 55.394531 4.519531 55.617188 7.824219 C 55.738281 9.621094 57.234375 4.433594 56.351562 1.558594 C 56.351562 1.558594 60.839844 3.96875 60.28125 9.898438 C 60.28125 9.898438 60.976562 8.554688 62.140625 9.273438 C 62.140625 9.273438 61.410156 9.527344 61.652344 11.503906 C 61.898438 13.480469 62.964844 20.710938 55.222656 20.710938 " fill-opacity="1" fill-rule="nonzero"/></g><g clip-path="url(#d53e583754)"><path fill="#adaced" d="M 54.644531 20.503906 C 53.382812 20.445312 50.984375 20.164062 50.984375 16.984375 C 50.984375 13.800781 54.125 13.371094 54.125 10.433594 C 54.125 10.433594 55.617188 10.960938 55.464844 12.410156 C 55.464844 12.410156 58.390625 10.558594 58.148438 8.367188 C 58.148438 8.367188 64.476562 20.960938 54.644531 20.503906 " fill-opacity="1" fill-rule="nonzero"/><path fill="#adaced" d="M 54.644531 20.503906 C 53.382812 20.445312 50.984375 20.164062 50.984375 16.984375 C 50.984375 13.800781 54.125 13.371094 54.125 10.433594 C 54.125 10.433594 55.617188 10.960938 55.464844 12.410156 C 55.464844 12.410156 58.390625 10.558594 58.148438 8.367188 C 58.148438 8.367188 64.476562 20.960938 54.644531 20.503906 " fill-opacity="1" fill-rule="nonzero"/></g><g clip-path="url(#ab65999d8e)"><path fill="#ffffff" d="M 55.253906 15.023438 C 55.253906 15.023438 56.015625 17.289062 54.765625 17.289062 C 53.894531 17.289062 54.003906 16.332031 54.003906 16.332031 C 54.003906 16.332031 51.578125 20.316406 55.253906 20.316406 C 55.996094 20.316406 57.292969 20.160156 57.292969 18.121094 C 57.292969 16.085938 56.167969 15.261719 55.253906 15.023438 " fill-opacity="1" fill-rule="nonzero"/></g><g fill="#000000" fill-opacity="1"><g transform="translate(18.710136, 27.228645)"><g><path d="M 3.09375 -3.75 C 3.445312 -3.632812 3.738281 -3.503906 3.96875 -3.359375 C 4.195312 -3.210938 4.378906 -3.054688 4.515625 -2.890625 C 4.660156 -2.722656 4.765625 -2.550781 4.828125 -2.375 C 4.890625 -2.195312 4.921875 -2.015625 4.921875 -1.828125 C 4.921875 -1.546875 4.859375 -1.285156 4.734375 -1.046875 C 4.609375 -0.804688 4.429688 -0.597656 4.203125 -0.421875 C 3.984375 -0.242188 3.71875 -0.101562 3.40625 0 C 3.09375 0.09375 2.742188 0.140625 2.359375 0.140625 C 1.992188 0.140625 1.628906 0.0976562 1.265625 0.015625 C 0.910156 -0.0664062 0.601562 -0.191406 0.34375 -0.359375 L 0.390625 -1.78125 L 1.203125 -1.78125 L 1.390625 -0.625 C 1.535156 -0.550781 1.6875 -0.492188 1.84375 -0.453125 C 2 -0.410156 2.171875 -0.390625 2.359375 -0.390625 C 2.765625 -0.390625 3.078125 -0.484375 3.296875 -0.671875 C 3.523438 -0.859375 3.640625 -1.101562 3.640625 -1.40625 C 3.640625 -1.65625 3.5625 -1.847656 3.40625 -1.984375 C 3.25 -2.128906 2.992188 -2.265625 2.640625 -2.390625 L 2.171875 -2.5625 C 1.597656 -2.769531 1.148438 -3.039062 0.828125 -3.375 C 0.515625 -3.71875 0.359375 -4.128906 0.359375 -4.609375 C 0.359375 -4.878906 0.410156 -5.128906 0.515625 -5.359375 C 0.617188 -5.585938 0.769531 -5.78125 0.96875 -5.9375 C 1.175781 -6.101562 1.421875 -6.234375 1.703125 -6.328125 C 1.992188 -6.421875 2.320312 -6.46875 2.6875 -6.46875 C 3.039062 -6.46875 3.375 -6.421875 3.6875 -6.328125 C 4 -6.242188 4.273438 -6.125 4.515625 -5.96875 L 4.4375 -4.640625 L 3.65625 -4.640625 L 3.453125 -5.78125 C 3.328125 -5.832031 3.203125 -5.867188 3.078125 -5.890625 C 2.953125 -5.921875 2.828125 -5.9375 2.703125 -5.9375 C 2.378906 -5.9375 2.109375 -5.851562 1.890625 -5.6875 C 1.671875 -5.519531 1.5625 -5.28125 1.5625 -4.96875 C 1.5625 -4.695312 1.648438 -4.484375 1.828125 -4.328125 C 2.015625 -4.179688 2.269531 -4.050781 2.59375 -3.9375 Z M 3.09375 -3.75 "/></g></g></g><g fill="#000000" fill-opacity="1"><g transform="translate(23.867238, 27.228645)"><g><path d="M 5.765625 -0.421875 L 5.765625 0 L 3.296875 0 L 3.296875 -0.421875 L 3.875 -0.546875 C 3.882812 -0.773438 3.890625 -1.023438 3.890625 -1.296875 C 3.890625 -1.566406 3.890625 -1.8125 3.890625 -2.03125 L 3.890625 -2.953125 C 3.890625 -3.316406 3.847656 -3.582031 3.765625 -3.75 C 3.691406 -3.925781 3.546875 -4.015625 3.328125 -4.015625 C 3.140625 -4.015625 2.957031 -3.960938 2.78125 -3.859375 C 2.601562 -3.765625 2.421875 -3.628906 2.234375 -3.453125 L 2.234375 -2.03125 C 2.234375 -1.820312 2.234375 -1.578125 2.234375 -1.296875 C 2.234375 -1.023438 2.234375 -0.773438 2.234375 -0.546875 L 2.796875 -0.421875 L 2.796875 0 L 0.3125 0 L 0.3125 -0.421875 L 0.90625 -0.546875 C 0.914062 -0.785156 0.921875 -1.039062 0.921875 -1.3125 C 0.921875 -1.582031 0.921875 -1.820312 0.921875 -2.03125 L 0.921875 -6.03125 L 0.1875 -6.125 L 0.1875 -6.515625 L 2.109375 -6.953125 L 2.234375 -6.875 L 2.203125 -5.5 L 2.203125 -3.953125 C 2.335938 -4.109375 2.460938 -4.238281 2.578125 -4.34375 C 2.703125 -4.445312 2.820312 -4.535156 2.9375 -4.609375 C 3.0625 -4.679688 3.191406 -4.734375 3.328125 -4.765625 C 3.460938 -4.796875 3.613281 -4.8125 3.78125 -4.8125 C 4.238281 -4.8125 4.585938 -4.671875 4.828125 -4.390625 C 5.078125 -4.117188 5.203125 -3.691406 5.203125 -3.109375 L 5.203125 -2.03125 C 5.203125 -1.8125 5.203125 -1.566406 5.203125 -1.296875 C 5.203125 -1.023438 5.207031 -0.773438 5.21875 -0.546875 Z M 5.765625 -0.421875 "/></g></g></g><g fill="#000000" fill-opacity="1"><g transform="translate(29.845229, 27.228645)"><g><path d="M 2.734375 -4.328125 C 2.054688 -4.328125 1.71875 -3.660156 1.71875 -2.328125 C 1.71875 -1.640625 1.800781 -1.132812 1.96875 -0.8125 C 2.144531 -0.5 2.398438 -0.34375 2.734375 -0.34375 C 3.078125 -0.34375 3.332031 -0.5 3.5 -0.8125 C 3.664062 -1.132812 3.75 -1.640625 3.75 -2.328125 C 3.75 -3.660156 3.410156 -4.328125 2.734375 -4.328125 Z M 2.734375 -4.8125 C 3.054688 -4.8125 3.363281 -4.753906 3.65625 -4.640625 C 3.945312 -4.523438 4.203125 -4.359375 4.421875 -4.140625 C 4.648438 -3.921875 4.832031 -3.65625 4.96875 -3.34375 C 5.101562 -3.039062 5.171875 -2.695312 5.171875 -2.3125 C 5.171875 -1.925781 5.109375 -1.582031 4.984375 -1.28125 C 4.867188 -0.976562 4.703125 -0.71875 4.484375 -0.5 C 4.265625 -0.289062 4.003906 -0.128906 3.703125 -0.015625 C 3.398438 0.0859375 3.078125 0.140625 2.734375 0.140625 C 2.390625 0.140625 2.066406 0.0859375 1.765625 -0.015625 C 1.460938 -0.128906 1.203125 -0.289062 0.984375 -0.5 C 0.773438 -0.71875 0.609375 -0.976562 0.484375 -1.28125 C 0.359375 -1.582031 0.296875 -1.925781 0.296875 -2.3125 C 0.296875 -2.695312 0.359375 -3.039062 0.484375 -3.34375 C 0.617188 -3.65625 0.796875 -3.921875 1.015625 -4.140625 C 1.242188 -4.359375 1.503906 -4.523438 1.796875 -4.640625 C 2.097656 -4.753906 2.410156 -4.8125 2.734375 -4.8125 Z M 2.734375 -4.8125 "/></g></g></g><g fill="#000000" fill-opacity="1"><g transform="translate(35.31137, 27.228645)"><g><path d="M 7.75 -4.203125 L 7.09375 -4.09375 L 5.453125 0.09375 L 4.90625 0.09375 L 3.734375 -3.09375 L 2.515625 0.09375 L 1.984375 0.09375 L 0.453125 -4.140625 L -0.046875 -4.203125 L -0.046875 -4.640625 L 2.359375 -4.640625 L 2.359375 -4.203125 L 1.796875 -4.140625 L 2.65625 -1.625 L 3.625 -4.140625 L 3.046875 -4.203125 L 3.046875 -4.640625 L 5.25 -4.640625 L 5.25 -4.203125 L 4.6875 -4.125 L 5.625 -1.65625 L 6.53125 -4.109375 L 5.875 -4.203125 L 5.875 -4.640625 L 7.75 -4.640625 Z M 7.75 -4.203125 "/></g></g></g><g fill="#000000" fill-opacity="1"><g transform="translate(43.162915, 27.228645)"><g><path d="M 2.28125 -3.765625 C 2.457031 -4.097656 2.660156 -4.351562 2.890625 -4.53125 C 3.128906 -4.71875 3.359375 -4.8125 3.578125 -4.8125 C 3.710938 -4.8125 3.851562 -4.769531 4 -4.6875 C 4.144531 -4.601562 4.242188 -4.441406 4.296875 -4.203125 C 4.296875 -3.992188 4.234375 -3.820312 4.109375 -3.6875 C 3.992188 -3.5625 3.832031 -3.5 3.625 -3.5 C 3.375 -3.5 3.125 -3.628906 2.875 -3.890625 L 2.859375 -3.90625 C 2.742188 -3.800781 2.632812 -3.675781 2.53125 -3.53125 C 2.4375 -3.394531 2.351562 -3.238281 2.28125 -3.0625 L 2.28125 -2.03125 C 2.28125 -1.820312 2.28125 -1.582031 2.28125 -1.3125 C 2.28125 -1.050781 2.28125 -0.800781 2.28125 -0.5625 L 3.015625 -0.421875 L 3.015625 0 L 0.359375 0 L 0.359375 -0.421875 L 0.953125 -0.546875 C 0.960938 -0.773438 0.96875 -1.023438 0.96875 -1.296875 C 0.96875 -1.578125 0.96875 -1.820312 0.96875 -2.03125 L 0.96875 -2.59375 C 0.96875 -2.726562 0.96875 -2.84375 0.96875 -2.9375 C 0.96875 -3.03125 0.960938 -3.117188 0.953125 -3.203125 C 0.953125 -3.296875 0.953125 -3.378906 0.953125 -3.453125 C 0.953125 -3.535156 0.945312 -3.628906 0.9375 -3.734375 L 0.296875 -3.8125 L 0.296875 -4.1875 L 2.03125 -4.8125 L 2.1875 -4.71875 Z M 2.28125 -3.765625 "/></g></g></g><g fill="#000000" fill-opacity="1"><g transform="translate(47.576392, 27.228645)"><g><path d="M 2.734375 -4.328125 C 2.054688 -4.328125 1.71875 -3.660156 1.71875 -2.328125 C 1.71875 -1.640625 1.800781 -1.132812 1.96875 -0.8125 C 2.144531 -0.5 2.398438 -0.34375 2.734375 -0.34375 C 3.078125 -0.34375 3.332031 -0.5 3.5 -0.8125 C 3.664062 -1.132812 3.75 -1.640625 3.75 -2.328125 C 3.75 -3.660156 3.410156 -4.328125 2.734375 -4.328125 Z M 2.734375 -4.8125 C 3.054688 -4.8125 3.363281 -4.753906 3.65625 -4.640625 C 3.945312 -4.523438 4.203125 -4.359375 4.421875 -4.140625 C 4.648438 -3.921875 4.832031 -3.65625 4.96875 -3.34375 C 5.101562 -3.039062 5.171875 -2.695312 5.171875 -2.3125 C 5.171875 -1.925781 5.109375 -1.582031 4.984375 -1.28125 C 4.867188 -0.976562 4.703125 -0.71875 4.484375 -0.5 C 4.265625 -0.289062 4.003906 -0.128906 3.703125 -0.015625 C 3.398438 0.0859375 3.078125 0.140625 2.734375 0.140625 C 2.390625 0.140625 2.066406 0.0859375 1.765625 -0.015625 C 1.460938 -0.128906 1.203125 -0.289062 0.984375 -0.5 C 0.773438 -0.71875 0.609375 -0.976562 0.484375 -1.28125 C 0.359375 -1.582031 0.296875 -1.925781 0.296875 -2.3125 C 0.296875 -2.695312 0.359375 -3.039062 0.484375 -3.34375 C 0.617188 -3.65625 0.796875 -3.921875 1.015625 -4.140625 C 1.242188 -4.359375 1.503906 -4.523438 1.796875 -4.640625 C 2.097656 -4.753906 2.410156 -4.8125 2.734375 -4.8125 Z M 2.734375 -4.8125 "/></g></g></g><g fill="#000000" fill-opacity="1"><g transform="translate(53.042534, 27.228645)"><g><path d="M 2.734375 -4.328125 C 2.054688 -4.328125 1.71875 -3.660156 1.71875 -2.328125 C 1.71875 -1.640625 1.800781 -1.132812 1.96875 -0.8125 C 2.144531 -0.5 2.398438 -0.34375 2.734375 -0.34375 C 3.078125 -0.34375 3.332031 -0.5 3.5 -0.8125 C 3.664062 -1.132812 3.75 -1.640625 3.75 -2.328125 C 3.75 -3.660156 3.410156 -4.328125 2.734375 -4.328125 Z M 2.734375 -4.8125 C 3.054688 -4.8125 3.363281 -4.753906 3.65625 -4.640625 C 3.945312 -4.523438 4.203125 -4.359375 4.421875 -4.140625 C 4.648438 -3.921875 4.832031 -3.65625 4.96875 -3.34375 C 5.101562 -3.039062 5.171875 -2.695312 5.171875 -2.3125 C 5.171875 -1.925781 5.109375 -1.582031 4.984375 -1.28125 C 4.867188 -0.976562 4.703125 -0.71875 4.484375 -0.5 C 4.265625 -0.289062 4.003906 -0.128906 3.703125 -0.015625 C 3.398438 0.0859375 3.078125 0.140625 2.734375 0.140625 C 2.390625 0.140625 2.066406 0.0859375 1.765625 -0.015625 C 1.460938 -0.128906 1.203125 -0.289062 0.984375 -0.5 C 0.773438 -0.71875 0.609375 -0.976562 0.484375 -1.28125 C 0.359375 -1.582031 0.296875 -1.925781 0.296875 -2.3125 C 0.296875 -2.695312 0.359375 -3.039062 0.484375 -3.34375 C 0.617188 -3.65625 0.796875 -3.921875 1.015625 -4.140625 C 1.242188 -4.359375 1.503906 -4.523438 1.796875 -4.640625 C 2.097656 -4.753906 2.410156 -4.8125 2.734375 -4.8125 Z M 2.734375 -4.8125 "/></g></g></g><g fill="#000000" fill-opacity="1"><g transform="translate(58.508675, 27.228645)"><g><path d="M 8.640625 -0.421875 L 8.640625 0 L 6.203125 0 L 6.203125 -0.421875 L 6.796875 -0.546875 C 6.804688 -0.773438 6.8125 -1.023438 6.8125 -1.296875 C 6.8125 -1.566406 6.8125 -1.8125 6.8125 -2.03125 L 6.8125 -2.953125 C 6.8125 -3.660156 6.613281 -4.015625 6.21875 -4.015625 C 6.050781 -4.015625 5.875 -3.957031 5.6875 -3.84375 C 5.5 -3.738281 5.328125 -3.613281 5.171875 -3.46875 C 5.179688 -3.414062 5.1875 -3.359375 5.1875 -3.296875 C 5.1875 -3.234375 5.1875 -3.171875 5.1875 -3.109375 L 5.1875 -2.03125 C 5.1875 -1.8125 5.1875 -1.566406 5.1875 -1.296875 C 5.1875 -1.023438 5.191406 -0.773438 5.203125 -0.546875 L 5.75 -0.421875 L 5.75 0 L 3.328125 0 L 3.328125 -0.421875 L 3.90625 -0.546875 C 3.914062 -0.773438 3.921875 -1.023438 3.921875 -1.296875 C 3.921875 -1.566406 3.921875 -1.8125 3.921875 -2.03125 L 3.921875 -2.953125 C 3.921875 -3.660156 3.722656 -4.015625 3.328125 -4.015625 C 3.160156 -4.015625 2.984375 -3.957031 2.796875 -3.84375 C 2.609375 -3.738281 2.4375 -3.613281 2.28125 -3.46875 L 2.28125 -2.03125 C 2.28125 -1.820312 2.28125 -1.578125 2.28125 -1.296875 C 2.28125 -1.023438 2.28125 -0.769531 2.28125 -0.53125 L 2.8125 -0.421875 L 2.8125 0 L 0.390625 0 L 0.390625 -0.421875 L 0.96875 -0.546875 C 0.976562 -0.785156 0.984375 -1.039062 0.984375 -1.3125 C 0.984375 -1.582031 0.984375 -1.820312 0.984375 -2.03125 L 0.984375 -2.59375 C 0.984375 -2.726562 0.984375 -2.84375 0.984375 -2.9375 C 0.984375 -3.03125 0.976562 -3.117188 0.96875 -3.203125 C 0.96875 -3.296875 0.96875 -3.378906 0.96875 -3.453125 C 0.96875 -3.535156 0.960938 -3.628906 0.953125 -3.734375 L 0.296875 -3.8125 L 0.296875 -4.1875 L 2.03125 -4.8125 L 2.1875 -4.71875 L 2.25 -3.953125 C 2.488281 -4.253906 2.722656 -4.472656 2.953125 -4.609375 C 3.179688 -4.742188 3.457031 -4.8125 3.78125 -4.8125 C 4.476562 -4.8125 4.914062 -4.515625 5.09375 -3.921875 C 5.21875 -4.078125 5.335938 -4.207031 5.453125 -4.3125 C 5.578125 -4.425781 5.703125 -4.519531 5.828125 -4.59375 C 5.953125 -4.675781 6.085938 -4.734375 6.234375 -4.765625 C 6.378906 -4.796875 6.539062 -4.8125 6.71875 -4.8125 C 7.1875 -4.8125 7.53125 -4.671875 7.75 -4.390625 C 7.96875 -4.117188 8.078125 -3.691406 8.078125 -3.109375 L 8.078125 -2.03125 C 8.078125 -1.8125 8.078125 -1.566406 8.078125 -1.296875 C 8.078125 -1.023438 8.082031 -0.773438 8.09375 -0.546875 Z M 8.640625 -0.421875 "/></g></g></g><g fill="#000000" fill-opacity="1"><g transform="translate(67.364598, 27.228645)"><g><path d="M 2.546875 -5.75 C 2.523438 -5.351562 2.515625 -4.953125 2.515625 -4.546875 C 2.515625 -4.148438 2.515625 -3.742188 2.515625 -3.328125 L 2.515625 -3 C 2.515625 -2.59375 2.515625 -2.1875 2.515625 -1.78125 C 2.515625 -1.375 2.523438 -0.96875 2.546875 -0.5625 L 3.328125 -0.484375 L 3.328125 0 L 0.3125 0 L 0.3125 -0.484375 L 1.09375 -0.5625 C 1.101562 -0.96875 1.109375 -1.367188 1.109375 -1.765625 C 1.109375 -2.171875 1.109375 -2.582031 1.109375 -3 L 1.109375 -3.328125 C 1.109375 -3.734375 1.109375 -4.132812 1.109375 -4.53125 C 1.109375 -4.9375 1.101562 -5.34375 1.09375 -5.75 L 0.3125 -5.84375 L 0.3125 -6.328125 L 3.328125 -6.328125 L 3.328125 -5.84375 Z M 2.546875 -5.75 "/></g></g></g><g fill="#000000" fill-opacity="1"><g transform="translate(70.995818, 27.228645)"><g><path d="M 2.453125 -2.078125 C 2.691406 -2.078125 2.875 -2.175781 3 -2.375 C 3.132812 -2.582031 3.203125 -2.867188 3.203125 -3.234375 C 3.203125 -3.597656 3.132812 -3.878906 3 -4.078125 C 2.875 -4.273438 2.691406 -4.375 2.453125 -4.375 C 2.203125 -4.375 2.015625 -4.273438 1.890625 -4.078125 C 1.765625 -3.878906 1.703125 -3.597656 1.703125 -3.234375 C 1.703125 -2.867188 1.765625 -2.582031 1.890625 -2.375 C 2.015625 -2.175781 2.203125 -2.078125 2.453125 -2.078125 Z M 2.09375 0.140625 C 1.875 0.140625 1.6875 0.125 1.53125 0.09375 C 1.4375 0.269531 1.390625 0.453125 1.390625 0.640625 C 1.390625 0.941406 1.484375 1.148438 1.671875 1.265625 C 1.859375 1.390625 2.101562 1.453125 2.40625 1.453125 C 2.90625 1.453125 3.285156 1.375 3.546875 1.21875 C 3.804688 1.070312 3.9375 0.882812 3.9375 0.65625 C 3.9375 0.53125 3.878906 0.410156 3.765625 0.296875 C 3.660156 0.191406 3.453125 0.140625 3.140625 0.140625 Z M 5.0625 -4 L 4.15625 -4 C 4.289062 -3.769531 4.359375 -3.515625 4.359375 -3.234375 C 4.359375 -3.003906 4.3125 -2.789062 4.21875 -2.59375 C 4.132812 -2.40625 4.007812 -2.238281 3.84375 -2.09375 C 3.675781 -1.957031 3.472656 -1.847656 3.234375 -1.765625 C 3.003906 -1.691406 2.742188 -1.65625 2.453125 -1.65625 C 2.191406 -1.65625 1.945312 -1.6875 1.71875 -1.75 C 1.675781 -1.6875 1.644531 -1.628906 1.625 -1.578125 C 1.601562 -1.523438 1.59375 -1.460938 1.59375 -1.390625 C 1.59375 -1.148438 1.769531 -1.03125 2.125 -1.03125 L 3.171875 -1.03125 C 3.835938 -1.03125 4.3125 -0.914062 4.59375 -0.6875 C 4.875 -0.457031 5.015625 -0.148438 5.015625 0.234375 C 5.015625 0.472656 4.957031 0.691406 4.84375 0.890625 C 4.738281 1.097656 4.570312 1.273438 4.34375 1.421875 C 4.113281 1.578125 3.820312 1.703125 3.46875 1.796875 C 3.125 1.890625 2.71875 1.9375 2.25 1.9375 C 1.550781 1.9375 1.046875 1.851562 0.734375 1.6875 C 0.429688 1.53125 0.28125 1.296875 0.28125 0.984375 C 0.28125 0.785156 0.34375 0.601562 0.46875 0.4375 C 0.601562 0.28125 0.832031 0.125 1.15625 -0.03125 C 0.96875 -0.125 0.832031 -0.242188 0.75 -0.390625 C 0.664062 -0.535156 0.625 -0.691406 0.625 -0.859375 C 0.625 -1.078125 0.6875 -1.269531 0.8125 -1.4375 C 0.9375 -1.601562 1.109375 -1.757812 1.328125 -1.90625 C 1.085938 -2.050781 0.894531 -2.234375 0.75 -2.453125 C 0.613281 -2.679688 0.546875 -2.941406 0.546875 -3.234375 C 0.546875 -3.460938 0.585938 -3.671875 0.671875 -3.859375 C 0.765625 -4.054688 0.894531 -4.222656 1.0625 -4.359375 C 1.226562 -4.503906 1.425781 -4.613281 1.65625 -4.6875 C 1.894531 -4.769531 2.160156 -4.8125 2.453125 -4.8125 C 2.984375 -4.8125 3.414062 -4.6875 3.75 -4.4375 L 4.921875 -4.8125 L 5.0625 -4.71875 Z M 5.0625 -4 "/></g></g></g><g fill="#000000" fill-opacity="1"><g transform="translate(76.249496, 27.228645)"><g><path d="M 5.8125 -0.421875 L 5.8125 0 L 3.34375 0 L 3.34375 -0.421875 L 3.9375 -0.546875 C 3.9375 -0.773438 3.9375 -1.023438 3.9375 -1.296875 C 3.9375 -1.566406 3.9375 -1.8125 3.9375 -2.03125 L 3.9375 -2.953125 C 3.9375 -3.316406 3.894531 -3.582031 3.8125 -3.75 C 3.738281 -3.925781 3.59375 -4.015625 3.375 -4.015625 C 3.1875 -4.015625 3.003906 -3.960938 2.828125 -3.859375 C 2.648438 -3.765625 2.46875 -3.628906 2.28125 -3.453125 L 2.28125 -2.03125 C 2.28125 -1.820312 2.28125 -1.578125 2.28125 -1.296875 C 2.28125 -1.023438 2.28125 -0.773438 2.28125 -0.546875 L 2.84375 -0.421875 L 2.84375 0 L 0.359375 0 L 0.359375 -0.421875 L 0.953125 -0.546875 C 0.960938 -0.785156 0.96875 -1.039062 0.96875 -1.3125 C 0.96875 -1.582031 0.96875 -1.820312 0.96875 -2.03125 L 0.96875 -2.578125 C 0.96875 -2.710938 0.96875 -2.828125 0.96875 -2.921875 C 0.96875 -3.023438 0.960938 -3.117188 0.953125 -3.203125 C 0.953125 -3.296875 0.953125 -3.378906 0.953125 -3.453125 C 0.953125 -3.535156 0.945312 -3.628906 0.9375 -3.734375 L 0.296875 -3.8125 L 0.296875 -4.1875 L 2.03125 -4.8125 L 2.1875 -4.71875 L 2.25 -3.953125 C 2.382812 -4.109375 2.507812 -4.238281 2.625 -4.34375 C 2.75 -4.445312 2.867188 -4.535156 2.984375 -4.609375 C 3.109375 -4.679688 3.238281 -4.734375 3.375 -4.765625 C 3.507812 -4.796875 3.660156 -4.8125 3.828125 -4.8125 C 4.285156 -4.8125 4.632812 -4.671875 4.875 -4.390625 C 5.125 -4.117188 5.25 -3.691406 5.25 -3.109375 L 5.25 -2.03125 C 5.25 -1.8125 5.25 -1.566406 5.25 -1.296875 C 5.25 -1.023438 5.253906 -0.773438 5.265625 -0.546875 Z M 5.8125 -0.421875 "/></g></g></g><g fill="#000000" fill-opacity="1"><g transform="translate(82.275771, 27.228645)"><g><path d="M 1.609375 -5.609375 C 1.390625 -5.609375 1.195312 -5.679688 1.03125 -5.828125 C 0.875 -5.972656 0.796875 -6.15625 0.796875 -6.375 C 0.796875 -6.601562 0.875 -6.785156 1.03125 -6.921875 C 1.195312 -7.066406 1.390625 -7.140625 1.609375 -7.140625 C 1.828125 -7.140625 2.015625 -7.066406 2.171875 -6.921875 C 2.328125 -6.785156 2.40625 -6.601562 2.40625 -6.375 C 2.40625 -6.15625 2.328125 -5.972656 2.171875 -5.828125 C 2.015625 -5.679688 1.828125 -5.609375 1.609375 -5.609375 Z M 2.84375 -0.421875 L 2.84375 0 L 0.359375 0 L 0.359375 -0.421875 L 0.953125 -0.546875 C 0.960938 -0.785156 0.96875 -1.039062 0.96875 -1.3125 C 0.96875 -1.582031 0.96875 -1.820312 0.96875 -2.03125 L 0.96875 -2.515625 C 0.96875 -2.773438 0.960938 -2.992188 0.953125 -3.171875 C 0.953125 -3.347656 0.945312 -3.535156 0.9375 -3.734375 L 0.296875 -3.8125 L 0.296875 -4.1875 L 2.15625 -4.8125 L 2.3125 -4.71875 L 2.28125 -3.328125 L 2.28125 -2.03125 C 2.28125 -1.820312 2.28125 -1.578125 2.28125 -1.296875 C 2.28125 -1.023438 2.28125 -0.773438 2.28125 -0.546875 Z M 2.84375 -0.421875 "/></g></g></g><g fill="#000000" fill-opacity="1"><g transform="translate(85.259936, 27.228645)"><g><path d="M 3.453125 -0.59375 C 3.328125 -0.40625 3.144531 -0.242188 2.90625 -0.109375 C 2.675781 0.0234375 2.390625 0.09375 2.046875 0.09375 C 1.648438 0.09375 1.335938 0 1.109375 -0.1875 C 0.878906 -0.382812 0.765625 -0.6875 0.765625 -1.09375 C 0.765625 -1.289062 0.765625 -1.460938 0.765625 -1.609375 C 0.773438 -1.753906 0.78125 -1.921875 0.78125 -2.109375 L 0.78125 -4.015625 L 0.140625 -4.015625 L 0.140625 -4.546875 L 0.890625 -4.640625 L 1.171875 -5.984375 L 2.09375 -5.984375 L 2.09375 -4.640625 L 3.203125 -4.640625 L 3.203125 -4.015625 L 2.09375 -4.015625 L 2.09375 -1.359375 C 2.09375 -1.117188 2.140625 -0.945312 2.234375 -0.84375 C 2.328125 -0.738281 2.445312 -0.6875 2.59375 -0.6875 C 2.65625 -0.6875 2.738281 -0.695312 2.84375 -0.71875 C 2.945312 -0.75 3.054688 -0.816406 3.171875 -0.921875 Z M 3.453125 -0.59375 "/></g></g></g><g fill="#000000" fill-opacity="1"><g transform="translate(88.698004, 27.228645)"><g><path d="M 2.90625 -2.75 C 3.132812 -2.75 3.289062 -2.796875 3.375 -2.890625 C 3.46875 -2.992188 3.515625 -3.144531 3.515625 -3.34375 C 3.515625 -3.65625 3.445312 -3.894531 3.3125 -4.0625 C 3.1875 -4.238281 3.019531 -4.328125 2.8125 -4.328125 C 2.707031 -4.328125 2.597656 -4.300781 2.484375 -4.25 C 2.367188 -4.195312 2.257812 -4.109375 2.15625 -3.984375 C 2.0625 -3.859375 1.972656 -3.695312 1.890625 -3.5 C 1.816406 -3.300781 1.769531 -3.050781 1.75 -2.75 Z M 1.734375 -2.265625 C 1.753906 -1.691406 1.894531 -1.269531 2.15625 -1 C 2.414062 -0.738281 2.742188 -0.609375 3.140625 -0.609375 C 3.421875 -0.609375 3.648438 -0.671875 3.828125 -0.796875 C 4.015625 -0.921875 4.179688 -1.097656 4.328125 -1.328125 L 4.65625 -1.15625 C 4.53125 -0.726562 4.289062 -0.40625 3.9375 -0.1875 C 3.582031 0.03125 3.160156 0.140625 2.671875 0.140625 C 2.328125 0.140625 2.007812 0.0859375 1.71875 -0.015625 C 1.425781 -0.128906 1.175781 -0.289062 0.96875 -0.5 C 0.769531 -0.707031 0.613281 -0.960938 0.5 -1.265625 C 0.394531 -1.578125 0.34375 -1.925781 0.34375 -2.3125 C 0.34375 -2.6875 0.398438 -3.023438 0.515625 -3.328125 C 0.640625 -3.628906 0.8125 -3.890625 1.03125 -4.109375 C 1.25 -4.328125 1.503906 -4.5 1.796875 -4.625 C 2.085938 -4.75 2.40625 -4.8125 2.75 -4.8125 C 3.0625 -4.8125 3.335938 -4.757812 3.578125 -4.65625 C 3.828125 -4.5625 4.039062 -4.421875 4.21875 -4.234375 C 4.394531 -4.054688 4.53125 -3.84375 4.625 -3.59375 C 4.71875 -3.34375 4.765625 -3.066406 4.765625 -2.765625 C 4.765625 -2.585938 4.742188 -2.421875 4.703125 -2.265625 Z M 1.734375 -2.265625 "/></g></g></g></svg>